<?xml version="1.0" encoding="UTF-8"?>
<svg id="Layer_1" data-name="Layer 1" xmlns="http://www.w3.org/2000/svg" viewBox="0 0 182.12 60">
  <defs>
    <style>
      .cls-1 {
        stroke-width: 2px;
      }

      .cls-1, .cls-2 {
        fill: #fff;
        stroke: #1c1c1c;
        stroke-linecap: round;
        stroke-miterlimit: 10;
      }

      .cls-3 {
        opacity: .56;
      }

      .cls-4 {
        fill: #191919;
      }

      .cls-2 {
        stroke-width: 3px;
      }
    </style>
  </defs>
  <path class="cls-4" d="M17.46,54.35h21.46v2.84c0,.28-.22.5-.5.5h-20.46c-.28,0-.5-.22-.5-.5v-2.84h0Z" transform="translate(56.38 112.05) rotate(-180)"/>
  <g class="cls-3">
    <path class="cls-2" d="M180,53.63c-4.63-.42-9.27.39-13.89.95-11.49,1.39-23.14.88-34.68,1.32-11.91.45-23.82.88-35.74,1.06-16.45.26-32.96.1-49.38-1.1-4.96-.36-9.92-.86-14.85-1.57-6.99-1.01-13.6-2.69-18.85-7.66C4.12,38.57,1.34,25.85,3.3,14.56c.09-.52.22-1.08.63-1.41.35-.28.83-.32,1.29-.34,15.2-.78,31.25-1.41,46.47-1.71,12.5-.25,24.99-.76,37.47-1.35,16.33-.77,32.69-.91,48.99-2.29,1.64-.14,3.29-.29,4.93-.44,12.09-1.14,24.02-3.18,36.11-4.39"/>
    <path class="cls-1" d="M37.96,12.56c-.21.31-.47.58-.75.81-1.32,1.05-3.05.85-4.63.94-2.3.13-4.6.07-6.9.1-7.41.11-14.51-.7-21.8-1.87-.78-.12-1.77-.34-2.11-1.15-.11-.26,4.05-.99,4.34-1.04,4.07-.66,8.12-.72,12.23-.94,4.69-.25,9.39-.6,14.09-.69,1.78-.03,3.63.18,5.33.71.21.07.43.14.59.3.29.27.32.72.26,1.11-.08.61-.31,1.2-.66,1.7Z"/>
  </g>
</svg>